<svg width="80" height="80" viewBox="0 0 80 80" fill="none" xmlns="http://www.w3.org/2000/svg">
<rect x="44.5" y="0.5" width="35" height="35" rx="3.5" fill="#F6F5F1" stroke="#EBE9E4"/>
<rect x="0.5" y="0.5" width="35" height="35" rx="3.5" fill="#F6F5F1" stroke="#EBE9E4"/>
<rect x="0.5" y="44.5" width="35" height="35" rx="3.5" fill="#F6F5F1" stroke="#EBE9E4"/>
<path d="M77.75 62C77.75 62.7031 77.125 63.25 76.5 63.25H62.75V77C62.75 77.7031 62.125 78.3281 61.5 78.3281C60.7969 78.3281 60.25 77.7031 60.25 77V63.25H46.5C45.7969 63.25 45.25 62.7031 45.25 62.0781C45.25 61.375 45.7969 60.75 46.5 60.75H60.25V47C60.25 46.375 60.7969 45.8281 61.5 45.8281C62.125 45.8281 62.75 46.375 62.75 47V60.75H76.5C77.125 60.75 77.75 61.375 77.75 62Z" fill="#000"/>
</svg>
